<svg enable-background="new 0 0 150 150" viewBox="0 0 150 150" xmlns="http://www.w3.org/2000/svg"><path d="m.5 2.9h149.1v144.2h-149.1z" fill="none"/><path d="m136.1 55.4h-122.2c-6.9 0-12.2 5.4-12.2 12.3v39.1h146.7v-39.1c-.1-6.9-5.4-12.3-12.3-12.3z" fill="#2f80ed"/><path d="m148.3 107.7h-146.6c-.5 0-.9-.4-.9-.9v-39.1c0-7.4 5.8-13.1 13.1-13.1h122.2c7.4 0 13.1 5.8 13.1 13.1v39.1c0 .5-.4.9-.9.9zm-145.7-1.8h144.9v-38.2c0-6.3-5-11.3-11.3-11.3h-122.3c-6.3 0-11.3 5-11.3 11.3z"/><path d="m136.1 145.9h-122.2c-6.8 0-12.2-5.4-12.2-12.2v-26.9h146.7v26.9c-.1 6.8-5.4 12.2-12.3 12.2z" fill="#f90"/><path d="m136.1 146.8h-122.2c-7.4 0-13.1-5.8-13.1-13.1v-26.9c0-.5.4-.9.9-.9h146.7c.5 0 .9.4.9.9v26.9c-.1 7.3-5.8 13.1-13.2 13.1zm-133.5-39.1v26c0 6.3 5 11.3 11.3 11.3h122.2c6.3 0 11.3-5 11.3-11.3v-26z"/><path d="m101.9 11c-8.1 7.8-9.8 20.3-4.2 30.1l21 35.7 21-35.7c5.6-9.8 4.2-22-4.2-30.1-8.9-9.1-24.1-9.1-33.6 0z" fill="#ec407a"/><path d="m118.8 77.6c-.3 0-.6-.2-.8-.4l-21-35.7c-5.9-10.2-4.1-23 4.3-31.2 9.9-9.4 25.6-9.4 35 0 8.5 8.3 10.3 20.8 4.3 31.2l-21 35.7c-.2.2-.5.4-.8.4zm-16.3-66c-7.8 7.6-9.5 19.5-4 29l20.2 34.4 20.3-34.4c5.5-9.6 3.9-21.3-4-29-8.7-8.7-23.3-8.7-32.5 0z"/><path d="m119 38.3c5.4 0 9.8-4.4 9.8-9.8s-4.4-9.8-9.8-9.8-9.8 4.4-9.8 9.8c0 5.5 4.4 9.8 9.8 9.8z" fill="#fff"/><path d="m119 39.2c-5.9 0-10.7-4.8-10.7-10.7s4.8-10.7 10.7-10.7 10.7 4.8 10.7 10.7-4.8 10.7-10.7 10.7zm0-19.5c-4.9 0-8.9 4-8.9 8.9s4 8.9 8.9 8.9 8.9-4 8.9-8.9-4-8.9-8.9-8.9z"/><path d="m12.7 21.2c0-6.8 5.3-12.2 12.2-12.2 2 0 3.7.5 5.1 1.2 3.2-3.7 7.8-6.1 13.2-6.1 9.5 0 17.1 7.6 17.1 17.1z" fill="#fff"/><path d="m60.3 22.1h-47.6c-.5 0-.9-.4-.9-.9 0-7.4 5.8-13.1 13.1-13.1 1.7 0 3.3.3 4.9 1 3.5-3.8 8.3-5.9 13.4-5.9 10.1 0 18 7.9 18 18 0 .5-.4.9-.9.9zm-46.7-1.8h45.8c-.4-8.6-7.4-15.3-16.2-15.3-4.8 0-9.3 2.1-12.5 5.8-.3.3-.7.4-1.1.2-1.5-.7-3.1-1.1-4.7-1.1-6.1 0-10.9 4.5-11.3 10.4z"/><path d="m82.3 106.8h-53.7c-1.5 0-2.4-1-2.4-2.4v-36.7c0-1.5 1-2.4 2.4-2.4h53.8c1.5 0 2.4 1 2.4 2.4v36.7c0 1.4-1 2.4-2.5 2.4z" fill="#fff"/><path d="m82.3 107.7h-53.7c-2 0-3.3-1.4-3.3-3.3v-36.7c0-2 1.4-3.3 3.3-3.3h53.8c2 0 3.3 1.4 3.3 3.3v36.7c0 1.9-1.4 3.3-3.4 3.3zm-53.7-41.6c-1 0-1.5.6-1.5 1.5v36.7c0 1 .6 1.5 1.5 1.5h53.8c1 0 1.5-.6 1.5-1.5v-36.6c0-1-.6-1.5-1.5-1.5h-53.8z"/><path d="m83.1 45.7h-55.3c-1 0-2 .7-2.2 1.7l-8.1 24.4c-.5 1.5.7 3.2 2.2 3.2h71.4c1.7 0 2.9-1.7 2.2-3.2l-8.1-24.4c-.2-1-1.2-1.7-2.1-1.7z" fill="#81d4fa"/><path d="m91.1 75.9h-71.3c-1 0-1.9-.5-2.5-1.4s-.8-2-.5-3l8.1-24.4c.3-1.3 1.6-2.3 3.1-2.3h55.2c1.4 0 2.7 1 3.1 2.4l8 24.4c.4.8.4 1.9-.2 2.8-.7.9-1.8 1.5-3 1.5zm-63.3-29.3c-.6 0-1.2.5-1.3 1l-8.1 24.5c-.1.4 0 .9.3 1.4.3.4.7.6 1.1.6h71.4c.5 0 1-.3 1.3-.7.1-.2.3-.7.1-1.2l-8.1-24.6c-.2-.6-.8-1.1-1.3-1.1h-55.4z"/><path d="m62.8 106.8h-14.7v-17.1c0-4.2 3.2-7.3 7.3-7.3s7.3 3.2 7.3 7.3v17.1z" fill="#81d4fa"/><path d="m62.8 107.7h-14.7c-.5 0-.9-.4-.9-.9v-17.1c0-4.6 3.6-8.2 8.2-8.2s8.2 3.6 8.2 8.2v17.1c.1.5-.3.9-.8.9zm-13.8-1.8h12.9v-16.2c0-3.7-2.8-6.4-6.4-6.4s-6.5 2.7-6.5 6.4z"/><path d="m39.6 97h-4.9c-1.5 0-2.4-1-2.4-2.4v-9.8c0-1.5 1-2.4 2.4-2.4h4.9c1.5 0 2.4 1 2.4 2.4v9.8c0 1.4-1 2.4-2.4 2.4z" fill="#81d4fa"/><path d="m39.6 97.9h-4.9c-2 0-3.3-1.4-3.3-3.3v-9.8c0-2 1.4-3.3 3.3-3.3h4.9c2 0 3.3 1.4 3.3 3.3v9.8c0 1.9-1.4 3.3-3.3 3.3zm-4.9-14.7c-1 0-1.5.6-1.5 1.5v9.8c0 1 .6 1.5 1.5 1.5h4.9c1 0 1.5-.6 1.5-1.5v-9.8c0-1-.6-1.5-1.5-1.5z"/><path d="m76.2 97h-4.9c-1.5 0-2.4-1-2.4-2.4v-9.8c0-1.5 1-2.4 2.4-2.4h4.9c1.5 0 2.4 1 2.4 2.4v9.8c.1 1.4-.9 2.4-2.4 2.4z" fill="#81d4fa"/><path d="m76.2 97.9h-4.9c-2 0-3.3-1.4-3.3-3.3v-9.8c0-2 1.4-3.3 3.3-3.3h4.9c2 0 3.3 1.4 3.3 3.3v9.8c.1 1.9-1.3 3.3-3.3 3.3zm-4.9-14.7c-1 0-1.5.6-1.5 1.5v9.8c0 1 .6 1.5 1.5 1.5h4.9c1 0 1.5-.6 1.5-1.5v-9.8c0-1-.6-1.5-1.5-1.5z"/><path d="m40.8 33.4h-7.3c-1.5 0-2.4 1-2.4 2.4v19.6c0 1.5 1 2.4 2.4 2.4h7.3c1.5 0 2.4-1 2.4-2.4v-19.5c0-1.5-1-2.5-2.4-2.5z" fill="#81d4fa"/><path d="m40.8 58.8h-7.3c-2 0-3.3-1.4-3.3-3.3v-19.6c0-2 1.4-3.3 3.3-3.3h7.3c2 0 3.3 1.4 3.3 3.3v19.6c0 1.9-1.4 3.3-3.3 3.3zm-7.4-24.5c-1 0-1.5.6-1.5 1.5v19.6c0 1 .6 1.5 1.5 1.5h7.3c1 0 1.5-.6 1.5-1.5v-19.5c0-1-.6-1.5-1.5-1.5h-7.3z"/><path d="m92.1 145.9h-24.4l-24.4-39.1h24.4z" fill="#fff"/><path d="m92.1 146.8h-24.4c-.3 0-.6-.2-.8-.4l-24.4-39.1c-.2-.3-.2-.6 0-.9s.5-.5.8-.5h24.4c.3 0 .6.2.8.4l24.4 39.1c.2.3.2.6 0 .9s-.5.5-.8.5zm-23.9-1.8h22.3l-23.3-37.3h-22.4z"/><path d="m70.8 112.6h-24.4c-.5 0-.9-.4-.9-.9s.4-.9.9-.9h24.4c.5 0 .9.4.9.9s-.4.9-.9.9z" fill="#fff"/><path d="m92.1 146.8h-24.4c-.3 0-.6-.2-.8-.4l-24.4-39.1c-.2-.3-.2-.6 0-.9s.5-.5.8-.5h24.4c.3 0 .6.2.8.4l24.4 39.1c.2.3.2.6 0 .9s-.5.5-.8.5zm-23.9-1.8h22.3l-23.3-37.3h-22.4z"/></svg>