<svg enable-background="new 0 0 150 150" viewBox="0 0 150 150" xmlns="http://www.w3.org/2000/svg"><path d="m18.6 1.4h112.8v147.3h-112.8z" fill="none"/><path d="m49.7 41.6c3.8 0 6.9-3.1 6.9-6.9s-3.1-6.9-6.9-6.9-6.9 3.1-6.9 6.9 3.1 6.9 6.9 6.9z" fill="#fff"/><path d="m49.7 42.6c-4.3 0-7.8-3.5-7.8-7.8s3.5-7.8 7.8-7.8 7.8 3.5 7.8 7.8-3.5 7.8-7.8 7.8zm0-13.9c-3.3 0-6 2.7-6 6s2.7 6 6 6 6-2.7 6-6-2.7-6-6-6z"/><path d="m100.3 41.6c3.8 0 6.9-3.1 6.9-6.9s-3.1-6.9-6.9-6.9-6.9 3.1-6.9 6.9 3.1 6.9 6.9 6.9z" fill="#fff"/><path d="m100.3 42.6c-4.3 0-7.8-3.5-7.8-7.8s3.5-7.8 7.8-7.8 7.8 3.5 7.8 7.8-3.5 7.8-7.8 7.8zm0-13.9c-3.3 0-6 2.7-6 6s2.7 6 6 6 6-2.7 6-6-2.7-6-6-6z"/><path d="m19.8 94.6v9.2h18.4v36.8c0 3.9 3 6.9 6.9 6.9h59.8c3.9 0 6.9-3 6.9-6.9v-36.8h18.4v-9.2c0-15.2-12.4-27.6-27.6-27.6h-55.2c-15.2-.1-27.6 12.4-27.6 27.6z" fill="#2f80ed"/><path d="m104.9 148.4h-59.8c-4.4 0-7.8-3.4-7.8-7.8v-35.9h-17.5c-.5 0-.9-.4-.9-.9v-9.2c0-15.8 12.8-28.6 28.5-28.6h55.2c15.7 0 28.5 12.8 28.5 28.5v9.2c0 .5-.4.9-.9.9h-17.5v35.9c0 4.5-3.4 7.9-7.8 7.9zm-84.2-45.6h17.5c.5 0 .9.4.9.9v36.8c0 3.4 2.6 6 6 6h59.8c3.4 0 6-2.6 6-6v-36.8c0-.5.4-.9.9-.9h17.5v-8.3c0-14.7-12-26.7-26.7-26.7h-55.2c-14.7 0-26.7 12-26.7 26.7z"/><path d="m86.5 66.9-11.5 18.5-11.5-18.5v-11.5h23z" fill="#fff"/><path d="m75 86.3c-.3 0-.6-.2-.8-.4l-11.5-18.5c-.1-.1-.1-.3-.1-.5v-11.5c0-.5.4-.9.9-.9h23c.5 0 .9.4.9.9v11.5c0 .2 0 .3-.1.5l-11.5 18.4c-.2.3-.5.5-.8.5zm-10.6-19.6 10.6 16.9 10.6-16.9v-10.3h-21.2z"/><path d="m104.9 147.5h-59.8c-3.9 0-6.9-3-6.9-6.9v-48.3c0-3.9 3-6.9 6.9-6.9h59.8c3.9 0 6.9 3 6.9 6.9v48.3c0 3.9-3 6.9-6.9 6.9z" fill="#f90"/><path d="m104.9 148.4h-59.8c-4.4 0-7.8-3.4-7.8-7.8v-48.3c0-4.4 3.4-7.8 7.8-7.8h59.8c4.4 0 7.8 3.4 7.8 7.8v48.3c0 4.4-3.4 7.8-7.8 7.8zm-59.8-62.1c-3.4 0-6 2.6-6 6v48.3c0 3.4 2.6 6 6 6h59.8c3.4 0 6-2.6 6-6v-48.3c0-3.4-2.6-6-6-6z"/><path d="m102.6 27.8h-55.2v-2.3c0-12.7 10.4-23 23-23h9.2c12.7 0 23 10.4 23 23z" fill="#ec407a"/><path d="m102.6 28.7h-55.2c-.5 0-.9-.4-.9-.9v-2.3c0-13.2 10.7-23.9 23.9-23.9h9.2c13.2 0 23.9 10.7 23.9 23.9v2.3c0 .5-.4.9-.9.9zm-54.3-1.8h53.4v-1.4c0-12.2-9.9-22.1-22.1-22.1h-9.2c-12.2 0-22.1 9.9-22.1 22.1z"/><path d="m94.8 16.1c-.3 0-.6-.1-.8-.4-3.1-4.7-8.6-7.7-14.4-7.7h-9.2c-5.8 0-11.3 3-14.4 7.7-.3.4-.9.5-1.3.3-.4-.3-.5-.9-.3-1.3 3.5-5.2 9.6-8.5 16-8.5h9.2c6.4 0 12.5 3.2 16 8.5.3.4.2 1-.3 1.3-.2 0-.3.1-.5.1z" fill="#f48fb1"/><path d="m77.3 62.3h-4.6c-12.7 0-23-10.4-23-23v-11.5h50.6v11.5c0 12.7-10.3 23-23 23z" fill="#fff"/><path d="m77.3 63.3h-4.6c-13.2 0-23.9-10.7-23.9-23.9v-11.6c0-.5.4-.9.9-.9h50.6c.5 0 .9.4.9.9v11.5c0 13.2-10.7 24-23.9 24zm-26.7-34.6v10.6c0 12.2 9.9 22.1 22.1 22.1h4.6c12.2 0 22.1-9.9 22.1-22.1v-10.6z"/><path d="m89.5 38.2h-29c-3.9 0-7.4-1.8-9.7-5.1l-3.5-5.3h55.2l-3.5 5.3c-1.9 3.2-5.6 5.1-9.5 5.1z" fill="#ec407a"/><path d="m89.5 39.1h-29c-4.2 0-7.9-1.9-10.4-5.4l-3.5-5.3c-.2-.3-.2-.6 0-.9s.5-.5.8-.5h55.2c.3 0 .6.2.8.5s.1.7 0 .9l-3.5 5.3c-2.2 3.4-6.1 5.4-10.4 5.4zm-40.4-10.4 2.5 3.9c2.1 3 5.3 4.6 8.9 4.6h29c3.7 0 7-1.7 8.9-4.6l2.5-3.9z"/><path d="m57.7 124.5v-3.5c0-1.8-1.6-3.5-3.5-3.5s-3.5 1.6-3.5 3.5v3.5h-12.5v-20.7h-18.4v20.7c0 12.7 10.4 23 23 23h20.7c3.9 0 6.9-3 6.9-6.9v-9.2c0-3.9-3-6.9-6.9-6.9z" fill="#fff"/><path d="m63.5 148.4h-20.7c-13.2 0-23.9-10.7-23.9-23.9v-20.7c0-.5.4-.9.9-.9h18.4c.5 0 .9.4.9.9v19.8h10.8v-2.6c0-2.3 2-4.4 4.4-4.4s4.4 2 4.4 4.4v2.5h4.8c4.4 0 7.8 3.4 7.8 7.8v9.2c0 4.5-3.4 7.9-7.8 7.9zm-42.8-43.7v19.8c0 12.2 9.9 22.1 22.1 22.1h20.7c3.4 0 6-2.6 6-6v-9.2c0-3.4-2.6-6-6-6h-5.8c-.5 0-.9-.4-.9-.9v-3.5c0-1.3-1.2-2.5-2.5-2.5s-2.5 1.2-2.5 2.5v3.5c0 .5-.4.9-.9.9h-12.7c-.5 0-.9-.4-.9-.9v-19.8z"/><path d="m38.2 125.4h-4.6c-.5 0-.9-.4-.9-.9s.4-.9.9-.9h4.6c.5 0 .9.4.9.9s-.4.9-.9.9z"/><path d="m92.3 124.5v-3.5c0-1.8 1.6-3.5 3.5-3.5 1.8 0 3.5 1.6 3.5 3.5v3.5h12.7v-20.7h18.4v20.7c0 12.7-10.4 23-23 23h-20.9c-3.9 0-6.9-3-6.9-6.9v-9.2c0-3.9 3-6.9 6.9-6.9z" fill="#fff"/><path d="m107.2 148.4h-20.7c-4.4 0-7.8-3.4-7.8-7.8v-9.2c0-4.4 3.4-7.8 7.8-7.8h4.8v-2.6c0-2.3 2-4.4 4.4-4.4s4.4 2 4.4 4.4v2.5h10.8v-19.8c0-.5.4-.9.9-.9h18.4c.5 0 .9.4.9.9v20.7c0 13.3-10.7 24-23.9 24zm-20.7-23c-3.4 0-6 2.6-6 6v9.2c0 3.4 2.6 6 6 6h20.7c12.2 0 22.1-9.9 22.1-22.1v-19.8h-16.6v19.8c0 .5-.4.9-.9.9h-12.6c-.5 0-.9-.4-.9-.9v-3.5c0-1.3-1.2-2.5-2.5-2.5s-2.5 1.2-2.5 2.5v3.5c0 .5-.4.9-.9.9z"/><path d="m116.4 125.4h-4.6c-.5 0-.9-.4-.9-.9s.4-.9.9-.9h4.6c.5 0 .9.4.9.9s-.4.9-.9.9z"/><path d="m116.4 125.4h-4.6c-.5 0-.9-.4-.9-.9s.4-.9.9-.9h4.6c.5 0 .9.4.9.9s-.4.9-.9.9z"/><path d="m75 54.1c-3.8 0-7.3-1.8-9.9-5-.3-.4-.3-1 .1-1.3s1-.3 1.3.1c2.3 2.8 5.3 4.3 8.5 4.3s6.2-1.5 8.5-4.3c.3-.4.9-.5 1.3-.1.4.3.5.9.1 1.3-2.6 3.2-6.1 5-9.9 5z"/><path d="m81.9 20.9h-13.8c-1.8 0-3.5-1.6-3.5-3.5s1.6-3.5 3.5-3.5h13.8c1.8 0 3.5 1.6 3.5 3.5s-1.7 3.5-3.5 3.5z" fill="#fff"/><path d="m81.9 21.8h-13.8c-2.3 0-4.4-2-4.4-4.4s2-4.4 4.4-4.4h13.8c2.3 0 4.4 2 4.4 4.4s-2.1 4.4-4.4 4.4zm-13.8-6.9c-1.3 0-2.5 1.2-2.5 2.5s1.2 2.5 2.5 2.5h13.8c1.3 0 2.5-1.2 2.5-2.5s-1.2-2.5-2.5-2.5z"/><path d="m63.5 66.9-4.6 18.4h16.1z" fill="#2f80ed"/><path d="m75 86.3h-16.1c-.3 0-.6-.1-.7-.4-.2-.2-.2-.5-.2-.8l4.6-18.4c.1-.4.4-.6.7-.7.4-.1.7.1.9.4l11.5 18.4c.2.3.2.6 0 .9-.1.4-.4.6-.7.6zm-14.9-1.9h13.3l-9.5-15.2z"/><path d="m86.5 66.9 4.6 18.4h-16.1z" fill="#2f80ed"/><path d="m91.1 86.3h-16.1c-.3 0-.6-.2-.8-.5s-.2-.7 0-.9l11.5-18.4c.2-.3.5-.5.9-.4s.7.3.7.7l4.7 18.3c.1.3 0 .6-.2.8-.1.2-.4.4-.7.4zm-14.4-1.9h13.3l-3.8-15.2z"/><path d="m104.9 94.6h-13.8v9.2h13.8z" fill="#fff"/><path d="m104.9 104.7h-13.8c-.5 0-.9-.4-.9-.9v-9.2c0-.5.4-.9.9-.9h13.8c.5 0 .9.4.9.9v9.2c0 .5-.4.9-.9.9zm-12.9-1.9h12v-7.4h-12z"/></svg>