<svg enable-background="new 0 0 150 150" viewBox="0 0 150 150" xmlns="http://www.w3.org/2000/svg"><path d="m0 0h150v150h-150z" fill="#fff"/><path d="m69.5 148.6c37.7 0 68.2-30.5 68.2-68.2s-30.5-68.2-68.2-68.2-68.1 30.6-68.1 68.3c0 37.6 30.5 68.1 68.1 68.1z" fill="#2f80ed"/><path d="m69.5 149.6c-38.1 0-69.1-31-69.1-69.1s31-69.1 69.1-69.1 69.1 31 69.1 69.1c.1 38.1-30.9 69.1-69.1 69.1zm0-136.4c-37.1 0-67.2 30.2-67.2 67.2s30.2 67.2 67.2 67.2 67.2-30.2 67.2-67.2-30.1-67.2-67.2-67.2z"/><path d="m137.7 81.4h-136.3c-.5 0-.9-.4-.9-.9s.4-.9.9-.9h136.4c.5 0 .9.4.9.9s-.5.9-1 .9z"/><path d="m69.5 149.6c-19.3 0-35-31-35-69.1s15.7-69.1 35-69.1 35 31 35 69.1c.1 38.1-15.6 69.1-35 69.1zm0-136.4c-18.3 0-33.2 30.2-33.2 67.2s14.9 67.2 33.2 67.2 33.2-30.2 33.2-67.2-14.9-67.2-33.2-67.2z"/><path d="m69.5 149.6c-19.8 0-38.1-8.1-51.4-22.9-.2-.2-.3-.5-.2-.8 0-.3.2-.5.5-.7 12.7-7.4 31.4-11.6 51.2-11.6s38.5 4.2 51.2 11.6c.2.1.4.4.5.7 0 .3 0 .6-.2.8-13 14.5-31.7 22.9-51.6 22.9zm-49.2-23.4c12.9 13.9 30.4 21.5 49.2 21.5 18.9 0 36.8-7.8 49.2-21.5-12.4-6.8-30.3-10.8-49.2-10.8-18.9.1-36.8 4-49.2 10.8z"/><path d="m69.5 47.3c-19.8 0-38.5-4.2-51.2-11.6-.2-.1-.4-.4-.5-.7 0-.3 0-.6.2-.8 12.9-14.6 31.6-23 51.4-23s38.1 8.1 51.4 22.9c.2.2.3.5.2.8 0 .3-.2.5-.5.7-12.5 7.5-31.2 11.7-51 11.7zm-49.2-12.6c12.4 6.8 30.3 10.8 49.2 10.8 19 0 36.8-3.9 49.2-10.8-12.9-13.9-30.4-21.5-49.2-21.5s-36.7 7.8-49.2 21.5z"/><path d="m69.5 149.6c-.5 0-.9-.4-.9-.9v-136.4c0-.5.4-.9.9-.9s.9.4.9.9v136.4c.1.5-.3.9-.9.9z"/><path d="m128.2 69c11.3 0 20.5-3.1 20.5-6.8s-9.2-6.8-20.5-6.8-20.5 3.1-20.5 6.8 9.2 6.8 20.5 6.8z" fill="#fff"/><path d="m128.2 69.9c-10.4 0-21.4-2.7-21.4-7.8 0-5 11-7.8 21.4-7.8s21.4 2.7 21.4 7.8-11 7.8-21.4 7.8zm0-13.6c-11.5 0-19.5 3.1-19.5 5.9s8 5.9 19.5 5.9 19.5-3.1 19.5-5.9-8-5.9-19.5-5.9z"/><path d="m114 7.1c-6.8 6.5-8.2 16.9-3.3 25.1l17.7 30 17.7-30c4.9-8.2 3.3-18.5-3.3-25.1-8.3-7.6-20.9-7.6-28.8 0z" fill="#ec407a"/><path d="m128.5 63.1c-.3 0-.6-.2-.8-.5l-17.7-30c-5.1-8.6-3.7-19.4 3.4-26.2 8.3-8 21.3-8 30.2 0 7.1 7.1 8.5 17.9 3.4 26.3l-17.7 30c-.2.2-.5.4-.8.4zm-.2-60.8c-4.9 0-9.8 1.8-13.6 5.5-6.5 6.3-7.8 16.1-3.1 23.9l16.9 28.6 16.9-28.6c4.6-7.7 3.3-17.5-3.1-24-4.1-3.6-9.1-5.4-14-5.4z"/><path d="m128.2 30c4.5 0 8.2-3.7 8.2-8.2s-3.7-8.2-8.2-8.2-8.2 3.7-8.2 8.2 3.7 8.2 8.2 8.2z" fill="#fff"/><path d="m128.2 30.9c-5 0-9.1-4.1-9.1-9.1s4.1-9.1 9.1-9.1 9.1 4.1 9.1 9.1-4.1 9.1-9.1 9.1zm0-16.3c-4 0-7.2 3.2-7.2 7.2s3.3 7.2 7.2 7.2c4 0 7.2-3.3 7.2-7.2s-3.2-7.2-7.2-7.2z"/><path d="m57.2 102.6-9.7-9.6-42.4 42.4 9.6 9.6z" fill="#fff"/><path d="m14.7 146c-.2 0-.5-.1-.7-.3l-9.6-9.6c-.4-.4-.4-1 0-1.3l42.4-42.4c.4-.4 1-.4 1.3 0l9.6 9.6c.4.4.4 1 0 1.3l-42.4 42.4c-.1.2-.3.3-.6.3zm-8.3-10.6 8.3 8.3 41.1-41.1-8.3-8.3z"/><path d="m69.5 107.7c15.1 0 27.3-12.2 27.3-27.3s-12.2-27.3-27.3-27.3-27.3 12.2-27.3 27.3c.1 15.1 12.3 27.3 27.3 27.3z" fill="#fff"/><path d="m69.5 108.7c-15.5 0-28.2-12.7-28.2-28.2s12.7-28.3 28.2-28.3 28.2 12.7 28.2 28.2-12.6 28.3-28.2 28.3zm0-54.6c-14.5 0-26.3 11.8-26.3 26.3s11.8 26.3 26.3 26.3 26.3-11.8 26.3-26.3c.1-14.5-11.7-26.3-26.3-26.3z"/><path d="m69.5 99.5c10.5 0 19.1-8.5 19.1-19.1 0-10.5-8.5-19.1-19.1-19.1s-19.1 8.5-19.1 19.1c.1 10.6 8.6 19.1 19.1 19.1z" fill="#fff"/><path d="m69.5 100.5c-11 0-20-9-20-20s9-20 20-20 20 9 20 20-8.9 20-20 20zm0-38.2c-10 0-18.2 8.1-18.2 18.2 0 10 8.1 18.2 18.2 18.2s18.2-8.1 18.2-18.2-8.1-18.2-18.2-18.2z"/><path d="m79.4 71.8c-.2 0-.5-.1-.7-.3-2.5-2.5-5.7-3.8-9-3.8s-6.6 1.4-9 3.8c-.4.4-1 .4-1.3 0s-.4-1 0-1.3c2.8-2.8 6.5-4.4 10.3-4.4s7.5 1.5 10.3 4.4c.4.4.4 1 0 1.3-.2.3-.4.3-.6.3z" fill="#fff"/><path d="m37.6 114.3-1.9-1.9c-3.3-3.3-8.5-3.3-11.5 0l-17.4 17.4c-3.3 3.3-3.3 8.5 0 11.5l1.9 1.9c3.3 3.3 8.5 3.3 11.5 0l17.5-17.5c3.2-3.2 3.2-8.4-.1-11.4z" fill="#f90"/><path d="m14.6 146.6c-2.4 0-4.8-1-6.5-2.7l-1.9-1.9c-1.7-1.6-2.7-3.7-2.7-6.1-.1-2.5.9-4.9 2.7-6.7l17.5-17.5c1.6-1.7 3.7-2.7 6.1-2.7 2.4-.1 4.9.9 6.7 2.7l1.9 1.9c1.7 1.6 2.7 3.8 2.7 6.1.1 2.5-.9 4.9-2.7 6.7l-17.5 17.5c-1.6 1.7-3.7 2.7-6.1 2.7-.1 0-.2 0-.2 0zm15.3-35.8c-.1 0-.1 0-.2 0-1.9 0-3.5.8-4.8 2.1l-17.4 17.6c-1.4 1.4-2.2 3.3-2.2 5.3 0 1.9.8 3.6 2.1 4.8l1.9 1.9c1.4 1.4 3.3 2.3 5.3 2.2 1.9 0 3.5-.8 4.8-2.1l17.6-17.5c1.4-1.4 2.2-3.3 2.2-5.3 0-1.9-.8-3.5-2.1-4.8l-1.9-1.9c-1.5-1.5-3.4-2.3-5.3-2.3z"/></svg>